<svg width="209" height="39" viewBox="0 0 209 39" fill="none" xmlns="http://www.w3.org/2000/svg">
<path d="M30.5875 29C29.2475 29.2 27.9675 29.3 26.7475 29.3C25.5475 29.3 24.5375 28.89 23.7175 28.07C22.8975 27.25 22.4875 26.16 22.4875 24.8V8H27.7375V24.05C27.7375 24.35 27.8375 24.6 28.0375 24.8C28.2375 25 28.4875 25.1 28.7875 25.1H30.5875V29ZM48.8763 24.5C48.8763 26 48.4463 27.18 47.5863 28.04C46.7463 28.88 45.5763 29.3 44.0763 29.3H37.1763C35.6763 29.3 34.4963 28.88 33.6363 28.04C32.7963 27.18 32.3763 26 32.3763 24.5V17.6C32.3763 16.1 32.7963 14.93 33.6363 14.09C34.4963 13.23 35.6763 12.8 37.1763 12.8H44.0763C45.5763 12.8 46.7463 13.23 47.5863 14.09C48.4463 14.93 48.8763 16.1 48.8763 17.6V24.5ZM43.6263 18.05C43.6263 17.25 43.2263 16.85 42.4263 16.85H38.8263C38.0263 16.85 37.6263 17.25 37.6263 18.05V24.05C37.6263 24.85 38.0263 25.25 38.8263 25.25H42.4263C43.2263 25.25 43.6263 24.85 43.6263 24.05V18.05ZM65.6661 28.7C61.9261 29.1 58.6261 29.3 55.7661 29.3C54.4061 29.3 53.3161 28.89 52.4961 28.07C51.6761 27.25 51.2661 26.16 51.2661 24.8V17.9C51.2661 16.4 51.6861 15.23 52.5261 14.39C53.3861 13.53 54.5661 13.1 56.0661 13.1H65.6661V17.15H57.7161C56.9161 17.15 56.5161 17.55 56.5161 18.35V24.2C56.5161 24.5 56.6161 24.75 56.8161 24.95C57.0161 25.15 57.2661 25.25 57.5661 25.25C59.3661 25.25 62.0661 25.1 65.6661 24.8V28.7ZM73.3037 22.7V29H68.0537V8H73.3037V18.65H75.7037L79.0037 13.1H84.5537L80.0537 20.75L84.5537 29H79.0037L75.5537 22.7H73.3037ZM111.36 24.95C112.42 24.95 113.62 24.75 114.96 24.35V13.1H120.21V29H115.56L115.26 27.5C114.32 28.12 113.35 28.58 112.35 28.88C111.37 29.16 110.54 29.3 109.86 29.3H108.51C107.15 29.3 106.06 28.89 105.24 28.07C104.42 27.25 104.01 26.16 104.01 24.8V13.1H109.26V23.9C109.26 24.2 109.36 24.45 109.56 24.65C109.76 24.85 110.01 24.95 110.31 24.95H111.36ZM132.043 17.15C130.983 17.15 129.783 17.35 128.443 17.75V29H123.193V13.1H127.843L128.143 14.6C129.083 13.98 130.043 13.53 131.023 13.25C132.023 12.95 132.863 12.8 133.543 12.8H134.893C136.253 12.8 137.343 13.21 138.163 14.03C138.983 14.85 139.393 15.94 139.393 17.3V29H134.143V18.2C134.143 17.9 134.043 17.65 133.843 17.45C133.643 17.25 133.393 17.15 133.093 17.15H132.043ZM153.333 29L153.033 27.5C152.093 28.12 151.123 28.58 150.123 28.88C149.143 29.16 148.313 29.3 147.633 29.3H146.283C144.923 29.3 143.833 28.89 143.013 28.07C142.193 27.25 141.783 26.16 141.783 24.8V17.9C141.783 16.4 142.203 15.23 143.043 14.39C143.903 13.53 145.083 13.1 146.583 13.1H152.733V8H157.983V29H153.333ZM149.133 24.95C150.193 24.95 151.393 24.75 152.733 24.35V17.15H148.233C147.433 17.15 147.033 17.55 147.033 18.35V23.9C147.033 24.2 147.133 24.45 147.333 24.65C147.533 24.85 147.783 24.95 148.083 24.95H149.133ZM167.123 16.55C166.323 16.55 165.923 16.95 165.923 17.75V19.4H171.023V17.75C171.023 16.95 170.623 16.55 169.823 16.55H167.123ZM175.673 28.7C171.813 29.1 168.313 29.3 165.173 29.3C163.813 29.3 162.723 28.89 161.903 28.07C161.083 27.25 160.673 26.16 160.673 24.8V17.6C160.673 16.1 161.093 14.93 161.933 14.09C162.793 13.23 163.973 12.8 165.473 12.8H171.473C172.973 12.8 174.143 13.23 174.983 14.09C175.843 14.93 176.273 16.1 176.273 17.6V23.15H165.923V24.35C165.923 24.65 166.023 24.9 166.223 25.1C166.423 25.3 166.673 25.4 166.973 25.4C168.953 25.4 171.853 25.25 175.673 24.95V28.7ZM188.105 17.45C186.845 17.45 185.545 17.75 184.205 18.35V29H178.955V13.1H183.605L183.905 15.05C185.625 13.55 187.425 12.8 189.305 12.8H190.655V17.45H188.105ZM192.147 24.8C196.207 25.1 199.407 25.25 201.747 25.25C202.047 25.25 202.297 25.15 202.497 24.95C202.697 24.75 202.797 24.5 202.797 24.2V23.15H196.347C194.987 23.15 193.897 22.74 193.077 21.92C192.257 21.1 191.847 20.01 191.847 18.65V17.6C191.847 16.24 192.257 15.15 193.077 14.33C193.897 13.51 194.987 13.1 196.347 13.1H206.547V17H198.147C197.847 17 197.597 17.1 197.397 17.3C197.197 17.5 197.097 17.75 197.097 18.05C197.097 18.35 197.197 18.6 197.397 18.8C197.597 19 197.847 19.1 198.147 19.1H203.547C204.907 19.1 205.997 19.51 206.817 20.33C207.637 21.15 208.047 22.24 208.047 23.6V24.8C208.047 26.16 207.637 27.25 206.817 28.07C205.997 28.89 204.907 29.3 203.547 29.3C200.007 29.3 196.207 29.1 192.147 28.7V24.8Z" fill="white"/>
<path d="M1.8 8H13.8C15.76 8 17.2 8.45 18.12 9.35C19.04 10.23 19.5 11.58 19.5 13.4C19.5 14.6 19.24 15.58 18.72 16.34C18.2 17.08 17.56 17.6 16.8 17.9C18.42 18.34 19.52 19.42 20.1 21.14C20.3 21.76 20.4 22.48 20.4 23.3C20.4 25.26 19.94 26.7 19.02 27.62C18.1 28.54 16.66 29 14.7 29H1.8V8ZM15 22.4C15 21.2 14.4 20.6 13.2 20.6H7.2V24.8H13.2C14.4 24.8 15 24.2 15 23V22.4ZM14.1 14C14.1 12.8 13.5 12.2 12.3 12.2H7.2V16.4H12.3C13.5 16.4 14.1 15.8 14.1 14.6V14Z" fill="#7BA7D7"/>
<path d="M91.2 29H85.8V8H102.45V12.2H91.2V17.15H100.05V21.35H91.2V29Z" fill="#7BA7D7"/>
<line y1="38.5" x2="209" y2="38.5" stroke="white"/>
<line y1="0.5" x2="209" y2="0.5" stroke="white"/>
</svg>
